# xmcd
#
# Track frame offsets:
#	150
#	14864
#	34713
#	50054
#	66411
#	79129
#	95859
#	111405
#	134383
#	145495
#	163232
#
# Disc length: 2262 seconds
# Revision: 0
# Processed by: cddbd v1.5.2PL0 Copyright (c) Steve Scherf et al.
# Submitted via: dBpowerAMP V12.0
#
DISCID=af08d40b
DTITLE=Lulu Roman - There's A New Kid In Town
DYEAR=2009
DGENRE=Christmas
TTITLE0=Silver Bells
TTITLE1=Sweet Little Jesus Boy
TTITLE2=Away In A Manger
TTITLE3=Beautiful Star Of Bethlehem
TTITLE4=Welcome To Our World
TTITLE5=White Christmas
TTITLE6=Silent Night
TTITLE7=Grown Up Christmas List
TTITLE8=Most Wonderful Time Of The Year
TTITLE9=There's A New Kid In Town
TTITLE10=The Christmas Story
EXTD=
EXTT0=
EXTT1=
EXTT2=
EXTT3=
EXTT4=
EXTT5=
EXTT6=
EXTT7=
EXTT8=
EXTT9=
EXTT10=
PLAYORDER=
